{
	"asset":{
		"generator":"Khronos glTF Blender I/O v4.0.44",
		"version":"2.0"
	},
	"scene":0,
	"scenes":[
		{
			"name":"Scene",
			"nodes":[
				0
			]
		}
	],
	"nodes":[
		{
			"mesh":0,
			"name":"Bench-col",
			"scale":[
				0.2984488010406494,
				0.2984488010406494,
				0.2984488010406494
			]
		}
	],
	"materials":[
		{
			"doubleSided":true,
			"name":"Bench Metal",
			"pbrMetallicRoughness":{
				"baseColorFactor":[
					0.032440606504678726,
					0.032440606504678726,
					0.032440606504678726,
					1
				],
				"metallicFactor":0,
				"roughnessFactor":0.4000000059604645
			}
		},
		{
			"doubleSided":true,
			"name":"Bench Light Wood",
			"pbrMetallicRoughness":{
				"baseColorFactor":[
					0.46414005756378174,
					0.19661709666252136,
					0.04126536846160889,
					1
				],
				"metallicFactor":0,
				"roughnessFactor":0.6000000238418579
			}
		},
		{
			"doubleSided":true,
			"name":"Bench Dark Wood",
			"pbrMetallicRoughness":{
				"baseColorFactor":[
					0.20668663084506989,
					0.06221257150173187,
					0.003522303653880954,
					1
				],
				"metallicFactor":0,
				"roughnessFactor":0.5
			}
		}
	],
	"meshes":[
		{
			"name":"Cube.002",
			"primitives":[
				{
					"attributes":{
						"POSITION":0,
						"NORMAL":1,
						"TEXCOORD_0":2
					},
					"indices":3,
					"material":0
				},
				{
					"attributes":{
						"POSITION":4,
						"NORMAL":5,
						"TEXCOORD_0":6
					},
					"indices":7,
					"material":1
				},
				{
					"attributes":{
						"POSITION":8,
						"NORMAL":9,
						"TEXCOORD_0":10
					},
					"indices":11,
					"material":2
				}
			]
		}
	],
	"accessors":[
		{
			"bufferView":0,
			"componentType":5126,
			"count":526,
			"max":[
				4.36002254486084,
				3.7962381839752197,
				1.1233115196228027
			],
			"min":[
				-4.372220039367676,
				0.008739873766899109,
				-1.4345154762268066
			],
			"type":"VEC3"
		},
		{
			"bufferView":1,
			"componentType":5126,
			"count":526,
			"type":"VEC3"
		},
		{
			"bufferView":2,
			"componentType":5126,
			"count":526,
			"type":"VEC2"
		},
		{
			"bufferView":3,
			"componentType":5123,
			"count":1140,
			"type":"SCALAR"
		},
		{
			"bufferView":4,
			"componentType":5126,
			"count":136,
			"max":[
				3.8671584129333496,
				3.0254223346710205,
				0.2174803614616394
			],
			"min":[
				-3.8793563842773438,
				1.333073377609253,
				-1.349799633026123
			],
			"type":"VEC3"
		},
		{
			"bufferView":5,
			"componentType":5126,
			"count":136,
			"type":"VEC3"
		},
		{
			"bufferView":6,
			"componentType":5126,
			"count":136,
			"type":"VEC2"
		},
		{
			"bufferView":7,
			"componentType":5123,
			"count":258,
			"type":"SCALAR"
		},
		{
			"bufferView":8,
			"componentType":5126,
			"count":252,
			"max":[
				3.858736515045166,
				3.7865495681762695,
				1.0973237752914429
			],
			"min":[
				-3.87093448638916,
				1.333073377609253,
				-1.4245665073394775
			],
			"type":"VEC3"
		},
		{
			"bufferView":9,
			"componentType":5126,
			"count":252,
			"type":"VEC3"
		},
		{
			"bufferView":10,
			"componentType":5126,
			"count":252,
			"type":"VEC2"
		},
		{
			"bufferView":11,
			"componentType":5123,
			"count":486,
			"type":"SCALAR"
		}
	],
	"bufferViews":[
		{
			"buffer":0,
			"byteLength":6312,
			"byteOffset":0,
			"target":34962
		},
		{
			"buffer":0,
			"byteLength":6312,
			"byteOffset":6312,
			"target":34962
		},
		{
			"buffer":0,
			"byteLength":4208,
			"byteOffset":12624,
			"target":34962
		},
		{
			"buffer":0,
			"byteLength":2280,
			"byteOffset":16832,
			"target":34963
		},
		{
			"buffer":0,
			"byteLength":1632,
			"byteOffset":19112,
			"target":34962
		},
		{
			"buffer":0,
			"byteLength":1632,
			"byteOffset":20744,
			"target":34962
		},
		{
			"buffer":0,
			"byteLength":1088,
			"byteOffset":22376,
			"target":34962
		},
		{
			"buffer":0,
			"byteLength":516,
			"byteOffset":23464,
			"target":34963
		},
		{
			"buffer":0,
			"byteLength":3024,
			"byteOffset":23980,
			"target":34962
		},
		{
			"buffer":0,
			"byteLength":3024,
			"byteOffset":27004,
			"target":34962
		},
		{
			"buffer":0,
			"byteLength":2016,
			"byteOffset":30028,
			"target":34962
		},
		{
			"buffer":0,
			"byteLength":972,
			"byteOffset":32044,
			"target":34963
		}
	],
	"buffers":[
		{
			"byteLength":33016,
			"uri":"bench-9052db59d1c3e95795785fa7ebe12017.bin"
		}
	]
}
