{
	"asset":{
		"generator":"Khronos glTF Blender I/O v4.0.44",
		"version":"2.0"
	},
	"extensionsUsed":[
		"KHR_materials_transmission",
		"KHR_materials_ior"
	],
	"scene":0,
	"scenes":[
		{
			"name":"Scene",
			"nodes":[
				0
			]
		}
	],
	"nodes":[
		{
			"mesh":0,
			"name":"Cube",
			"scale":[
				1.2508823871612549,
				1.0522141456604004,
				1.2184698581695557
			],
			"translation":[
				0,
				-0.25158149003982544,
				0
			]
		}
	],
	"materials":[
		{
			"doubleSided":true,
			"name":"Body",
			"pbrMetallicRoughness":{
				"baseColorFactor":[
					0.07714208215475082,
					0.035222332924604416,
					0.014404640533030033,
					1
				],
				"metallicFactor":0,
				"roughnessFactor":0.5
			}
		},
		{
			"doubleSided":true,
			"name":"Blacks",
			"pbrMetallicRoughness":{
				"baseColorFactor":[
					0,
					0,
					0,
					1
				],
				"metallicFactor":0,
				"roughnessFactor":0.5
			}
		},
		{
			"doubleSided":true,
			"name":"White Light",
			"pbrMetallicRoughness":{
				"baseColorFactor":[
					0.15132254362106323,
					0.15132254362106323,
					0.15132254362106323,
					1
				],
				"metallicFactor":0,
				"roughnessFactor":0.5
			}
		},
		{
			"doubleSided":true,
			"name":"Orange Light",
			"pbrMetallicRoughness":{
				"baseColorFactor":[
					0.337158739566803,
					0.12103213369846344,
					0.01734739914536476,
					1
				],
				"metallicFactor":0,
				"roughnessFactor":0.5
			}
		},
		{
			"doubleSided":true,
			"name":"Red Light",
			"pbrMetallicRoughness":{
				"baseColorFactor":[
					0.22036859393119812,
					0.001419355277903378,
					0.001588802202604711,
					1
				],
				"metallicFactor":0,
				"roughnessFactor":0.5
			}
		},
		{
			"doubleSided":true,
			"extensions":{
				"KHR_materials_transmission":{
					"transmissionFactor":1
				},
				"KHR_materials_ior":{
					"ior":1.4500000476837158
				}
			},
			"name":"Windows",
			"pbrMetallicRoughness":{
				"baseColorFactor":[
					0.03008590079843998,
					0.02589370310306549,
					0.02656836062669754,
					1
				],
				"metallicFactor":0,
				"roughnessFactor":0.30000001192092896
			}
		}
	],
	"meshes":[
		{
			"name":"Cube.001",
			"primitives":[
				{
					"attributes":{
						"POSITION":0,
						"NORMAL":1,
						"TEXCOORD_0":2
					},
					"indices":3,
					"material":0
				},
				{
					"attributes":{
						"POSITION":4,
						"NORMAL":5,
						"TEXCOORD_0":6
					},
					"indices":7,
					"material":1
				},
				{
					"attributes":{
						"POSITION":8,
						"NORMAL":9,
						"TEXCOORD_0":10
					},
					"indices":11,
					"material":2
				},
				{
					"attributes":{
						"POSITION":12,
						"NORMAL":13,
						"TEXCOORD_0":14
					},
					"indices":15,
					"material":3
				},
				{
					"attributes":{
						"POSITION":16,
						"NORMAL":17,
						"TEXCOORD_0":18
					},
					"indices":19,
					"material":4
				},
				{
					"attributes":{
						"POSITION":20,
						"NORMAL":21,
						"TEXCOORD_0":22
					},
					"indices":23,
					"material":5
				},
				{
					"attributes":{
						"POSITION":24,
						"NORMAL":25,
						"TEXCOORD_0":26
					},
					"indices":27,
					"material":5
				}
			]
		}
	],
	"accessors":[
		{
			"bufferView":0,
			"componentType":5126,
			"count":5188,
			"max":[
				0.6950944662094116,
				1.3991872072219849,
				1.383500576019287
			],
			"min":[
				-0.6950944662094116,
				0.3039185702800751,
				-1.621416449546814
			],
			"type":"VEC3"
		},
		{
			"bufferView":1,
			"componentType":5126,
			"count":5188,
			"type":"VEC3"
		},
		{
			"bufferView":2,
			"componentType":5126,
			"count":5188,
			"type":"VEC2"
		},
		{
			"bufferView":3,
			"componentType":5123,
			"count":9492,
			"type":"SCALAR"
		},
		{
			"bufferView":4,
			"componentType":5126,
			"count":666,
			"max":[
				0.8444525003433228,
				0.9092077612876892,
				1.383500576019287
			],
			"min":[
				-0.8444525003433228,
				0.3039185702800751,
				-1.621416449546814
			],
			"type":"VEC3"
		},
		{
			"bufferView":5,
			"componentType":5126,
			"count":666,
			"type":"VEC3"
		},
		{
			"bufferView":6,
			"componentType":5126,
			"count":666,
			"type":"VEC2"
		},
		{
			"bufferView":7,
			"componentType":5123,
			"count":1236,
			"type":"SCALAR"
		},
		{
			"bufferView":8,
			"componentType":5126,
			"count":688,
			"max":[
				0.6131770610809326,
				0.8151073455810547,
				1.379502296447754
			],
			"min":[
				-0.6131770610809326,
				0.4822627305984497,
				-1.6137491464614868
			],
			"type":"VEC3"
		},
		{
			"bufferView":9,
			"componentType":5126,
			"count":688,
			"type":"VEC3"
		},
		{
			"bufferView":10,
			"componentType":5126,
			"count":688,
			"type":"VEC2"
		},
		{
			"bufferView":11,
			"componentType":5123,
			"count":1944,
			"type":"SCALAR"
		},
		{
			"bufferView":12,
			"componentType":5126,
			"count":16,
			"max":[
				0.5976159572601318,
				0.8151073455810547,
				1.3642997741699219
			],
			"min":[
				-0.5976159572601318,
				0.7547283172607422,
				1.3642997741699219
			],
			"type":"VEC3"
		},
		{
			"bufferView":13,
			"componentType":5126,
			"count":16,
			"type":"VEC3"
		},
		{
			"bufferView":14,
			"componentType":5126,
			"count":16,
			"type":"VEC2"
		},
		{
			"bufferView":15,
			"componentType":5123,
			"count":24,
			"type":"SCALAR"
		},
		{
			"bufferView":16,
			"componentType":5126,
			"count":148,
			"max":[
				0.5979815125465393,
				0.6780012845993042,
				-1.5983902215957642
			],
			"min":[
				-0.5979815125465393,
				0.4822627305984497,
				-1.6137491464614868
			],
			"type":"VEC3"
		},
		{
			"bufferView":17,
			"componentType":5126,
			"count":148,
			"type":"VEC3"
		},
		{
			"bufferView":18,
			"componentType":5126,
			"count":148,
			"type":"VEC2"
		},
		{
			"bufferView":19,
			"componentType":5123,
			"count":312,
			"type":"SCALAR"
		},
		{
			"bufferView":20,
			"componentType":5126,
			"count":68,
			"max":[
				0.6711617112159729,
				1.3267379999160767,
				0.5016613006591797
			],
			"min":[
				-0.6711617112159729,
				0.8524532318115234,
				-1.5589174032211304
			],
			"type":"VEC3"
		},
		{
			"bufferView":21,
			"componentType":5126,
			"count":68,
			"type":"VEC3"
		},
		{
			"bufferView":22,
			"componentType":5126,
			"count":68,
			"type":"VEC2"
		},
		{
			"bufferView":23,
			"componentType":5123,
			"count":120,
			"type":"SCALAR"
		},
		{
			"bufferView":24,
			"componentType":5126,
			"count":80,
			"max":[
				0.6905205249786377,
				0.5991057753562927,
				1.2004361152648926
			],
			"min":[
				-0.6905205249786377,
				0.3039185702800751,
				-1.3998088836669922
			],
			"type":"VEC3"
		},
		{
			"bufferView":25,
			"componentType":5126,
			"count":80,
			"type":"VEC3"
		},
		{
			"bufferView":26,
			"componentType":5126,
			"count":80,
			"type":"VEC2"
		},
		{
			"bufferView":27,
			"componentType":5123,
			"count":120,
			"type":"SCALAR"
		}
	],
	"bufferViews":[
		{
			"buffer":0,
			"byteLength":62256,
			"byteOffset":0,
			"target":34962
		},
		{
			"buffer":0,
			"byteLength":62256,
			"byteOffset":62256,
			"target":34962
		},
		{
			"buffer":0,
			"byteLength":41504,
			"byteOffset":124512,
			"target":34962
		},
		{
			"buffer":0,
			"byteLength":18984,
			"byteOffset":166016,
			"target":34963
		},
		{
			"buffer":0,
			"byteLength":7992,
			"byteOffset":185000,
			"target":34962
		},
		{
			"buffer":0,
			"byteLength":7992,
			"byteOffset":192992,
			"target":34962
		},
		{
			"buffer":0,
			"byteLength":5328,
			"byteOffset":200984,
			"target":34962
		},
		{
			"buffer":0,
			"byteLength":2472,
			"byteOffset":206312,
			"target":34963
		},
		{
			"buffer":0,
			"byteLength":8256,
			"byteOffset":208784,
			"target":34962
		},
		{
			"buffer":0,
			"byteLength":8256,
			"byteOffset":217040,
			"target":34962
		},
		{
			"buffer":0,
			"byteLength":5504,
			"byteOffset":225296,
			"target":34962
		},
		{
			"buffer":0,
			"byteLength":3888,
			"byteOffset":230800,
			"target":34963
		},
		{
			"buffer":0,
			"byteLength":192,
			"byteOffset":234688,
			"target":34962
		},
		{
			"buffer":0,
			"byteLength":192,
			"byteOffset":234880,
			"target":34962
		},
		{
			"buffer":0,
			"byteLength":128,
			"byteOffset":235072,
			"target":34962
		},
		{
			"buffer":0,
			"byteLength":48,
			"byteOffset":235200,
			"target":34963
		},
		{
			"buffer":0,
			"byteLength":1776,
			"byteOffset":235248,
			"target":34962
		},
		{
			"buffer":0,
			"byteLength":1776,
			"byteOffset":237024,
			"target":34962
		},
		{
			"buffer":0,
			"byteLength":1184,
			"byteOffset":238800,
			"target":34962
		},
		{
			"buffer":0,
			"byteLength":624,
			"byteOffset":239984,
			"target":34963
		},
		{
			"buffer":0,
			"byteLength":816,
			"byteOffset":240608,
			"target":34962
		},
		{
			"buffer":0,
			"byteLength":816,
			"byteOffset":241424,
			"target":34962
		},
		{
			"buffer":0,
			"byteLength":544,
			"byteOffset":242240,
			"target":34962
		},
		{
			"buffer":0,
			"byteLength":240,
			"byteOffset":242784,
			"target":34963
		},
		{
			"buffer":0,
			"byteLength":960,
			"byteOffset":243024,
			"target":34962
		},
		{
			"buffer":0,
			"byteLength":960,
			"byteOffset":243984,
			"target":34962
		},
		{
			"buffer":0,
			"byteLength":640,
			"byteOffset":244944,
			"target":34962
		},
		{
			"buffer":0,
			"byteLength":240,
			"byteOffset":245584,
			"target":34963
		}
	],
	"buffers":[
		{
			"byteLength":245824,
			"uri":"car_offroad-0a99ce0d4bbb8932147aa129ee79e2c3.bin"
		}
	]
}
