{
	"asset":{
		"generator":"Khronos glTF Blender I/O v4.0.44",
		"version":"2.0"
	},
	"extensionsUsed":[
		"KHR_materials_transmission",
		"KHR_materials_ior"
	],
	"scene":0,
	"scenes":[
		{
			"name":"Scene",
			"nodes":[
				0
			]
		}
	],
	"nodes":[
		{
			"mesh":0,
			"name":"Plane-col",
			"scale":[
				9.961264610290527,
				7.985960006713867,
				4.990695476531982
			]
		}
	],
	"materials":[
		{
			"doubleSided":true,
			"name":"Main",
			"pbrMetallicRoughness":{
				"baseColorFactor":[
					1,
					0.6342166066169739,
					0.2289697229862213,
					1
				],
				"metallicFactor":0,
				"roughnessFactor":0.5
			}
		},
		{
			"doubleSided":true,
			"name":"Door",
			"pbrMetallicRoughness":{
				"baseColorFactor":[
					0.045183781534433365,
					0.006325210444629192,
					0.0038899751380085945,
					1
				],
				"metallicFactor":0,
				"roughnessFactor":0.5
			}
		},
		{
			"doubleSided":true,
			"name":"Roof",
			"pbrMetallicRoughness":{
				"baseColorFactor":[
					0.2897677421569824,
					0.10853540897369385,
					0.044390302151441574,
					1
				],
				"metallicFactor":0,
				"roughnessFactor":0.5
			}
		},
		{
			"doubleSided":true,
			"name":"Stone",
			"pbrMetallicRoughness":{
				"baseColorFactor":[
					0.43709948658943176,
					0.43709948658943176,
					0.43709948658943176,
					1
				],
				"metallicFactor":0,
				"roughnessFactor":0.5
			}
		},
		{
			"doubleSided":true,
			"extensions":{
				"KHR_materials_transmission":{
					"transmissionFactor":1
				},
				"KHR_materials_ior":{
					"ior":1.4500000476837158
				}
			},
			"name":"Window",
			"pbrMetallicRoughness":{
				"baseColorFactor":[
					0.03282099962234497,
					0.032426606863737106,
					0.032722312957048416,
					1
				],
				"metallicFactor":0,
				"roughnessFactor":0
			}
		}
	],
	"meshes":[
		{
			"name":"Plane",
			"primitives":[
				{
					"attributes":{
						"POSITION":0,
						"NORMAL":1,
						"TEXCOORD_0":2
					},
					"indices":3,
					"material":0
				},
				{
					"attributes":{
						"POSITION":4,
						"NORMAL":5,
						"TEXCOORD_0":6
					},
					"indices":7,
					"material":1
				},
				{
					"attributes":{
						"POSITION":8,
						"NORMAL":9,
						"TEXCOORD_0":10
					},
					"indices":11,
					"material":2
				},
				{
					"attributes":{
						"POSITION":12,
						"NORMAL":13,
						"TEXCOORD_0":14
					},
					"indices":15,
					"material":3
				},
				{
					"attributes":{
						"POSITION":16,
						"NORMAL":17,
						"TEXCOORD_0":18
					},
					"indices":19,
					"material":4
				}
			]
		}
	],
	"accessors":[
		{
			"bufferView":0,
			"componentType":5126,
			"count":205,
			"max":[
				1.5177581310272217,
				0.8738276362419128,
				1.4007880687713623
			],
			"min":[
				-2.520127773284912,
				-5.361570856621256e-06,
				-1.020037293434143
			],
			"type":"VEC3"
		},
		{
			"bufferView":1,
			"componentType":5126,
			"count":205,
			"type":"VEC3"
		},
		{
			"bufferView":2,
			"componentType":5126,
			"count":205,
			"type":"VEC2"
		},
		{
			"bufferView":3,
			"componentType":5123,
			"count":402,
			"type":"SCALAR"
		},
		{
			"bufferView":4,
			"componentType":5126,
			"count":7,
			"max":[
				0.10041728615760803,
				0.3774968981742859,
				1.3437167406082153
			],
			"min":[
				-0.1009080559015274,
				0,
				1.3437167406082153
			],
			"type":"VEC3"
		},
		{
			"bufferView":5,
			"componentType":5126,
			"count":7,
			"type":"VEC3"
		},
		{
			"bufferView":6,
			"componentType":5126,
			"count":7,
			"type":"VEC2"
		},
		{
			"bufferView":7,
			"componentType":5123,
			"count":15,
			"type":"SCALAR"
		},
		{
			"bufferView":8,
			"componentType":5126,
			"count":59,
			"max":[
				1.5077192783355713,
				0.8738276362419128,
				1.4007880687713623
			],
			"min":[
				-2.5100889205932617,
				0.6266825795173645,
				-1
			],
			"type":"VEC3"
		},
		{
			"bufferView":9,
			"componentType":5126,
			"count":59,
			"type":"VEC3"
		},
		{
			"bufferView":10,
			"componentType":5126,
			"count":59,
			"type":"VEC2"
		},
		{
			"bufferView":11,
			"componentType":5123,
			"count":93,
			"type":"SCALAR"
		},
		{
			"bufferView":12,
			"componentType":5126,
			"count":26,
			"max":[
				1.5177581310272217,
				0.14684754610061646,
				1.020037293434143
			],
			"min":[
				-2.520127773284912,
				-5.361570856621256e-06,
				-1.020037293434143
			],
			"type":"VEC3"
		},
		{
			"bufferView":13,
			"componentType":5126,
			"count":26,
			"type":"VEC3"
		},
		{
			"bufferView":14,
			"componentType":5126,
			"count":26,
			"type":"VEC2"
		},
		{
			"bufferView":15,
			"componentType":5123,
			"count":42,
			"type":"SCALAR"
		},
		{
			"bufferView":16,
			"componentType":5126,
			"count":8,
			"max":[
				0.9037487506866455,
				0.5002725720405579,
				0.9599254131317139
			],
			"min":[
				-0.9026609659194946,
				0.25057974457740784,
				0.9599254131317139
			],
			"type":"VEC3"
		},
		{
			"bufferView":17,
			"componentType":5126,
			"count":8,
			"type":"VEC3"
		},
		{
			"bufferView":18,
			"componentType":5126,
			"count":8,
			"type":"VEC2"
		},
		{
			"bufferView":19,
			"componentType":5123,
			"count":12,
			"type":"SCALAR"
		}
	],
	"bufferViews":[
		{
			"buffer":0,
			"byteLength":2460,
			"byteOffset":0,
			"target":34962
		},
		{
			"buffer":0,
			"byteLength":2460,
			"byteOffset":2460,
			"target":34962
		},
		{
			"buffer":0,
			"byteLength":1640,
			"byteOffset":4920,
			"target":34962
		},
		{
			"buffer":0,
			"byteLength":804,
			"byteOffset":6560,
			"target":34963
		},
		{
			"buffer":0,
			"byteLength":84,
			"byteOffset":7364,
			"target":34962
		},
		{
			"buffer":0,
			"byteLength":84,
			"byteOffset":7448,
			"target":34962
		},
		{
			"buffer":0,
			"byteLength":56,
			"byteOffset":7532,
			"target":34962
		},
		{
			"buffer":0,
			"byteLength":30,
			"byteOffset":7588,
			"target":34963
		},
		{
			"buffer":0,
			"byteLength":708,
			"byteOffset":7620,
			"target":34962
		},
		{
			"buffer":0,
			"byteLength":708,
			"byteOffset":8328,
			"target":34962
		},
		{
			"buffer":0,
			"byteLength":472,
			"byteOffset":9036,
			"target":34962
		},
		{
			"buffer":0,
			"byteLength":186,
			"byteOffset":9508,
			"target":34963
		},
		{
			"buffer":0,
			"byteLength":312,
			"byteOffset":9696,
			"target":34962
		},
		{
			"buffer":0,
			"byteLength":312,
			"byteOffset":10008,
			"target":34962
		},
		{
			"buffer":0,
			"byteLength":208,
			"byteOffset":10320,
			"target":34962
		},
		{
			"buffer":0,
			"byteLength":84,
			"byteOffset":10528,
			"target":34963
		},
		{
			"buffer":0,
			"byteLength":96,
			"byteOffset":10612,
			"target":34962
		},
		{
			"buffer":0,
			"byteLength":96,
			"byteOffset":10708,
			"target":34962
		},
		{
			"buffer":0,
			"byteLength":64,
			"byteOffset":10804,
			"target":34962
		},
		{
			"buffer":0,
			"byteLength":24,
			"byteOffset":10868,
			"target":34963
		}
	],
	"buffers":[
		{
			"byteLength":10892,
			"uri":"city_hall-2437649c98c1f44a5c140ab31a666ca9.bin"
		}
	]
}
