{
	"asset":{
		"generator":"Khronos glTF Blender I/O v4.0.44",
		"version":"2.0"
	},
	"scene":0,
	"scenes":[
		{
			"name":"Scene",
			"nodes":[
				0
			]
		}
	],
	"nodes":[
		{
			"mesh":0,
			"name":"Fountain-col",
			"scale":[
				0.20319131016731262,
				0.29560190439224243,
				0.20319131016731262
			]
		}
	],
	"materials":[
		{
			"doubleSided":true,
			"name":"Dark brick",
			"pbrMetallicRoughness":{
				"baseColorFactor":[
					0.34277579188346863,
					0.10341773927211761,
					0.02242470532655716,
					1
				],
				"metallicFactor":0,
				"roughnessFactor":0.5
			}
		},
		{
			"doubleSided":true,
			"name":"Light brick",
			"pbrMetallicRoughness":{
				"baseColorFactor":[
					0.7123521566390991,
					0.16302748024463654,
					0.03365204110741615,
					1
				],
				"metallicFactor":0,
				"roughnessFactor":0.5
			}
		}
	],
	"meshes":[
		{
			"name":"Circle.004",
			"primitives":[
				{
					"attributes":{
						"POSITION":0,
						"NORMAL":1,
						"TEXCOORD_0":2
					},
					"indices":3,
					"material":0
				},
				{
					"attributes":{
						"POSITION":4,
						"NORMAL":5,
						"TEXCOORD_0":6
					},
					"indices":7,
					"material":1
				}
			]
		}
	],
	"accessors":[
		{
			"bufferView":0,
			"componentType":5126,
			"count":348,
			"max":[
				9.290823936462402,
				2.870976448059082,
				9.226134300231934
			],
			"min":[
				-9.340984344482422,
				0.02608555555343628,
				-9.157369613647461
			],
			"type":"VEC3"
		},
		{
			"bufferView":1,
			"componentType":5126,
			"count":348,
			"type":"VEC3"
		},
		{
			"bufferView":2,
			"componentType":5126,
			"count":348,
			"type":"VEC2"
		},
		{
			"bufferView":3,
			"componentType":5123,
			"count":921,
			"type":"SCALAR"
		},
		{
			"bufferView":4,
			"componentType":5126,
			"count":131,
			"max":[
				9.290823936462402,
				2.870976448059082,
				9.226134300231934
			],
			"min":[
				-9.340984344482422,
				0.03675049543380737,
				-9.157369613647461
			],
			"type":"VEC3"
		},
		{
			"bufferView":5,
			"componentType":5126,
			"count":131,
			"type":"VEC3"
		},
		{
			"bufferView":6,
			"componentType":5126,
			"count":131,
			"type":"VEC2"
		},
		{
			"bufferView":7,
			"componentType":5123,
			"count":204,
			"type":"SCALAR"
		}
	],
	"bufferViews":[
		{
			"buffer":0,
			"byteLength":4176,
			"byteOffset":0,
			"target":34962
		},
		{
			"buffer":0,
			"byteLength":4176,
			"byteOffset":4176,
			"target":34962
		},
		{
			"buffer":0,
			"byteLength":2784,
			"byteOffset":8352,
			"target":34962
		},
		{
			"buffer":0,
			"byteLength":1842,
			"byteOffset":11136,
			"target":34963
		},
		{
			"buffer":0,
			"byteLength":1572,
			"byteOffset":12980,
			"target":34962
		},
		{
			"buffer":0,
			"byteLength":1572,
			"byteOffset":14552,
			"target":34962
		},
		{
			"buffer":0,
			"byteLength":1048,
			"byteOffset":16124,
			"target":34962
		},
		{
			"buffer":0,
			"byteLength":408,
			"byteOffset":17172,
			"target":34963
		}
	],
	"buffers":[
		{
			"byteLength":17580,
			"uri":"fountain-6f5562316542be1e408df17c0861e445.bin"
		}
	]
}
