{
	"asset":{
		"generator":"Khronos glTF Blender I/O v4.0.44",
		"version":"2.0"
	},
	"scene":0,
	"scenes":[
		{
			"name":"Scene",
			"nodes":[
				1
			]
		}
	],
	"nodes":[
		{
			"mesh":0,
			"name":"Text",
			"rotation":[
				0.7071060538291931,
				0,
				0,
				0.7071074843406677
			],
			"scale":[
				4.774442195892334,
				9.652190208435059,
				0.1836504191160202
			],
			"translation":[
				-5.727928638458252,
				1.9238684177398682,
				3.964207172393799
			]
		},
		{
			"children":[
				0
			],
			"mesh":1,
			"name":"StopSign-col",
			"scale":[
				0.055343832820653915,
				1.438798427581787,
				0.027375750243663788
			]
		}
	],
	"materials":[
		{
			"doubleSided":true,
			"name":"Stop Sign Pole",
			"pbrMetallicRoughness":{
				"baseColorFactor":[
					0.2641061246395111,
					0.2641061246395111,
					0.2641061246395111,
					1
				],
				"roughnessFactor":0.30000001192092896
			}
		},
		{
			"doubleSided":true,
			"name":"Stop Sign",
			"pbrMetallicRoughness":{
				"baseColorFactor":[
					1,
					0.01162262074649334,
					0.006463866680860519,
					1
				],
				"metallicFactor":0,
				"roughnessFactor":0.5
			}
		},
		{
			"doubleSided":true,
			"name":"White",
			"pbrMetallicRoughness":{
				"baseColorFactor":[
					0.800000011920929,
					0.800000011920929,
					0.800000011920929,
					1
				],
				"metallicFactor":0,
				"roughnessFactor":0.5
			}
		}
	],
	"meshes":[
		{
			"name":"Text",
			"primitives":[
				{
					"attributes":{
						"POSITION":0,
						"NORMAL":1,
						"TEXCOORD_0":2,
						"TANGENT":3
					},
					"indices":4
				}
			]
		},
		{
			"name":"Cube",
			"primitives":[
				{
					"attributes":{
						"POSITION":5,
						"NORMAL":6,
						"TEXCOORD_0":7
					},
					"indices":8,
					"material":0
				},
				{
					"attributes":{
						"POSITION":9,
						"NORMAL":10,
						"TEXCOORD_0":11
					},
					"indices":12,
					"material":1
				},
				{
					"attributes":{
						"POSITION":13,
						"NORMAL":14,
						"TEXCOORD_0":15
					},
					"indices":16,
					"material":2
				}
			]
		}
	],
	"accessors":[
		{
			"bufferView":0,
			"componentType":5126,
			"count":285,
			"max":[
				2.384999990463257,
				0,
				0.009000000543892384
			],
			"min":[
				0.04000000283122063,
				0,
				-0.6910000443458557
			],
			"type":"VEC3"
		},
		{
			"bufferView":1,
			"componentType":5126,
			"count":285,
			"type":"VEC3"
		},
		{
			"bufferView":2,
			"componentType":5126,
			"count":285,
			"type":"VEC2"
		},
		{
			"bufferView":3,
			"componentType":5126,
			"count":285,
			"type":"VEC4"
		},
		{
			"bufferView":4,
			"componentType":5123,
			"count":834,
			"type":"SCALAR"
		},
		{
			"bufferView":5,
			"componentType":5126,
			"count":64,
			"max":[
				7.528197765350342,
				2.2908737659454346,
				3.468790054321289
			],
			"min":[
				-7.519867420196533,
				1.3794749975204468e-05,
				-0.997737467288971
			],
			"type":"VEC3"
		},
		{
			"bufferView":6,
			"componentType":5126,
			"count":64,
			"type":"VEC3"
		},
		{
			"bufferView":7,
			"componentType":5126,
			"count":64,
			"type":"VEC2"
		},
		{
			"bufferView":8,
			"componentType":5123,
			"count":102,
			"type":"SCALAR"
		},
		{
			"bufferView":9,
			"componentType":5126,
			"count":8,
			"max":[
				6.996556282043457,
				2.270423650741577,
				3.468790054321289
			],
			"min":[
				-6.988225936889648,
				1.7324950695037842,
				3.4687886238098145
			],
			"type":"VEC3"
		},
		{
			"bufferView":10,
			"componentType":5126,
			"count":8,
			"type":"VEC3"
		},
		{
			"bufferView":11,
			"componentType":5126,
			"count":8,
			"type":"VEC2"
		},
		{
			"bufferView":12,
			"componentType":5123,
			"count":18,
			"type":"SCALAR"
		},
		{
			"bufferView":13,
			"componentType":5126,
			"count":20,
			"max":[
				7.528197765350342,
				2.2908737659454346,
				3.468790054321289
			],
			"min":[
				-7.519867420196533,
				1.7120453119277954,
				3.4687886238098145
			],
			"type":"VEC3"
		},
		{
			"bufferView":14,
			"componentType":5126,
			"count":20,
			"type":"VEC3"
		},
		{
			"bufferView":15,
			"componentType":5126,
			"count":20,
			"type":"VEC2"
		},
		{
			"bufferView":16,
			"componentType":5123,
			"count":48,
			"type":"SCALAR"
		}
	],
	"bufferViews":[
		{
			"buffer":0,
			"byteLength":3420,
			"byteOffset":0,
			"target":34962
		},
		{
			"buffer":0,
			"byteLength":3420,
			"byteOffset":3420,
			"target":34962
		},
		{
			"buffer":0,
			"byteLength":2280,
			"byteOffset":6840,
			"target":34962
		},
		{
			"buffer":0,
			"byteLength":4560,
			"byteOffset":9120,
			"target":34962
		},
		{
			"buffer":0,
			"byteLength":1668,
			"byteOffset":13680,
			"target":34963
		},
		{
			"buffer":0,
			"byteLength":768,
			"byteOffset":15348,
			"target":34962
		},
		{
			"buffer":0,
			"byteLength":768,
			"byteOffset":16116,
			"target":34962
		},
		{
			"buffer":0,
			"byteLength":512,
			"byteOffset":16884,
			"target":34962
		},
		{
			"buffer":0,
			"byteLength":204,
			"byteOffset":17396,
			"target":34963
		},
		{
			"buffer":0,
			"byteLength":96,
			"byteOffset":17600,
			"target":34962
		},
		{
			"buffer":0,
			"byteLength":96,
			"byteOffset":17696,
			"target":34962
		},
		{
			"buffer":0,
			"byteLength":64,
			"byteOffset":17792,
			"target":34962
		},
		{
			"buffer":0,
			"byteLength":36,
			"byteOffset":17856,
			"target":34963
		},
		{
			"buffer":0,
			"byteLength":240,
			"byteOffset":17892,
			"target":34962
		},
		{
			"buffer":0,
			"byteLength":240,
			"byteOffset":18132,
			"target":34962
		},
		{
			"buffer":0,
			"byteLength":160,
			"byteOffset":18372,
			"target":34962
		},
		{
			"buffer":0,
			"byteLength":96,
			"byteOffset":18532,
			"target":34963
		}
	],
	"buffers":[
		{
			"byteLength":18628,
			"uri":"stop_sign-934a8c62c9d04f5e9b4342a00acaad80.bin"
		}
	]
}
