{
	"asset":{
		"generator":"Khronos glTF Blender I/O v4.0.44",
		"version":"2.0"
	},
	"extensionsUsed":[
		"KHR_materials_transmission",
		"KHR_materials_ior"
	],
	"scene":0,
	"scenes":[
		{
			"name":"Scene",
			"nodes":[
				0
			]
		}
	],
	"nodes":[
		{
			"mesh":0,
			"name":"Apartment-col",
			"scale":[
				4.677336692810059,
				3.7106449604034424,
				2.3661327362060547
			]
		}
	],
	"materials":[
		{
			"doubleSided":true,
			"name":"Building",
			"pbrMetallicRoughness":{
				"baseColorFactor":[
					0.8000000715255737,
					0.6364291906356812,
					0.2703935503959656,
					1
				],
				"metallicFactor":0,
				"roughnessFactor":0.6000000238418579
			}
		},
		{
			"doubleSided":true,
			"extensions":{
				"KHR_materials_transmission":{
					"transmissionFactor":1
				},
				"KHR_materials_ior":{
					"ior":1.4500000476837158
				}
			},
			"name":"Window",
			"pbrMetallicRoughness":{
				"baseColorFactor":[
					0.18395861983299255,
					0.18395861983299255,
					0.18395861983299255,
					1
				],
				"metallicFactor":0,
				"roughnessFactor":0.10000000149011612
			}
		},
		{
			"doubleSided":true,
			"name":"Window Sill",
			"pbrMetallicRoughness":{
				"baseColorFactor":[
					0.800000011920929,
					0.800000011920929,
					0.800000011920929,
					1
				],
				"metallicFactor":0,
				"roughnessFactor":0.5
			}
		},
		{
			"doubleSided":true,
			"name":"Concrete",
			"pbrMetallicRoughness":{
				"baseColorFactor":[
					0.08688730746507645,
					0.08688730746507645,
					0.08688730746507645,
					1
				],
				"metallicFactor":0,
				"roughnessFactor":0.699999988079071
			}
		},
		{
			"doubleSided":true,
			"name":"Air System",
			"pbrMetallicRoughness":{
				"baseColorFactor":[
					0.36941370368003845,
					0.36941370368003845,
					0.36941370368003845,
					1
				],
				"metallicFactor":0,
				"roughnessFactor":0.5
			}
		},
		{
			"doubleSided":true,
			"name":"Door Frame",
			"pbrMetallicRoughness":{
				"baseColorFactor":[
					0.09592297673225403,
					0.05153282359242439,
					0.03074803575873375,
					1
				],
				"metallicFactor":0,
				"roughnessFactor":0.5
			}
		},
		{
			"doubleSided":true,
			"name":"Door.001",
			"pbrMetallicRoughness":{
				"baseColorFactor":[
					0.38317030668258667,
					0.17170722782611847,
					0.06783941388130188,
					1
				],
				"metallicFactor":0,
				"roughnessFactor":0.5
			}
		}
	],
	"meshes":[
		{
			"name":"Cube.003",
			"primitives":[
				{
					"attributes":{
						"POSITION":0,
						"NORMAL":1,
						"TEXCOORD_0":2
					},
					"indices":3,
					"material":0
				},
				{
					"attributes":{
						"POSITION":4,
						"NORMAL":5,
						"TEXCOORD_0":6
					},
					"indices":7,
					"material":1
				},
				{
					"attributes":{
						"POSITION":8,
						"NORMAL":9,
						"TEXCOORD_0":10
					},
					"indices":11,
					"material":2
				},
				{
					"attributes":{
						"POSITION":12,
						"NORMAL":13,
						"TEXCOORD_0":14
					},
					"indices":15,
					"material":3
				},
				{
					"attributes":{
						"POSITION":16,
						"NORMAL":17,
						"TEXCOORD_0":18
					},
					"indices":19,
					"material":4
				},
				{
					"attributes":{
						"POSITION":20,
						"NORMAL":21,
						"TEXCOORD_0":22
					},
					"indices":23,
					"material":5
				},
				{
					"attributes":{
						"POSITION":24,
						"NORMAL":25,
						"TEXCOORD_0":26
					},
					"indices":27,
					"material":6
				}
			]
		}
	],
	"accessors":[
		{
			"bufferView":0,
			"componentType":5126,
			"count":120,
			"max":[
				1.0743579864501953,
				2.0182206630706787,
				1.0476874113082886
			],
			"min":[
				-1.0733659267425537,
				0.050830721855163574,
				-1
			],
			"type":"VEC3"
		},
		{
			"bufferView":1,
			"componentType":5126,
			"count":120,
			"type":"VEC3"
		},
		{
			"bufferView":2,
			"componentType":5126,
			"count":120,
			"type":"VEC2"
		},
		{
			"bufferView":3,
			"componentType":5123,
			"count":228,
			"type":"SCALAR"
		},
		{
			"bufferView":4,
			"componentType":5126,
			"count":28,
			"max":[
				1.0818758010864258,
				1.6979283094406128,
				1.0029287338256836
			],
			"min":[
				-1.0896577835083008,
				0.37609970569610596,
				-0.11149978637695312
			],
			"type":"VEC3"
		},
		{
			"bufferView":5,
			"componentType":5126,
			"count":28,
			"type":"VEC3"
		},
		{
			"bufferView":6,
			"componentType":5126,
			"count":28,
			"type":"VEC2"
		},
		{
			"bufferView":7,
			"componentType":5123,
			"count":42,
			"type":"SCALAR"
		},
		{
			"bufferView":8,
			"componentType":5126,
			"count":244,
			"max":[
				1.0996191501617432,
				1.7122405767440796,
				1.028541922569275
			],
			"min":[
				-1.1074016094207764,
				0.35395026206970215,
				-0.13096076250076294
			],
			"type":"VEC3"
		},
		{
			"bufferView":9,
			"componentType":5126,
			"count":244,
			"type":"VEC3"
		},
		{
			"bufferView":10,
			"componentType":5126,
			"count":244,
			"type":"VEC2"
		},
		{
			"bufferView":11,
			"componentType":5123,
			"count":432,
			"type":"SCALAR"
		},
		{
			"bufferView":12,
			"componentType":5126,
			"count":163,
			"max":[
				1.1434571743011475,
				2.1283817291259766,
				1.0643465518951416
			],
			"min":[
				-1.1424651145935059,
				0.08105361461639404,
				-1.0643465518951416
			],
			"type":"VEC3"
		},
		{
			"bufferView":13,
			"componentType":5126,
			"count":163,
			"type":"VEC3"
		},
		{
			"bufferView":14,
			"componentType":5126,
			"count":163,
			"type":"VEC2"
		},
		{
			"bufferView":15,
			"componentType":5123,
			"count":360,
			"type":"SCALAR"
		},
		{
			"bufferView":16,
			"componentType":5126,
			"count":48,
			"max":[
				0.8033062815666199,
				2.2678370475769043,
				0.5151534676551819
			],
			"min":[
				0.2472774088382721,
				2.0169472694396973,
				-0.6276589035987854
			],
			"type":"VEC3"
		},
		{
			"bufferView":17,
			"componentType":5126,
			"count":48,
			"type":"VEC3"
		},
		{
			"bufferView":18,
			"componentType":5126,
			"count":48,
			"type":"VEC2"
		},
		{
			"bufferView":19,
			"componentType":5123,
			"count":72,
			"type":"SCALAR"
		},
		{
			"bufferView":20,
			"componentType":5126,
			"count":184,
			"max":[
				-0.44124463200569153,
				0.7055954337120056,
				1.0476874113082886
			],
			"min":[
				-0.8057163953781128,
				0.050830721855163574,
				0.874994158744812
			],
			"type":"VEC3"
		},
		{
			"bufferView":21,
			"componentType":5126,
			"count":184,
			"type":"VEC3"
		},
		{
			"bufferView":22,
			"componentType":5126,
			"count":184,
			"type":"VEC2"
		},
		{
			"bufferView":23,
			"componentType":5123,
			"count":288,
			"type":"SCALAR"
		},
		{
			"bufferView":24,
			"componentType":5126,
			"count":4,
			"max":[
				-0.4712246358394623,
				0.6753724813461304,
				0.9226821064949036
			],
			"min":[
				-0.775736391544342,
				0.08105361461639404,
				0.9226821064949036
			],
			"type":"VEC3"
		},
		{
			"bufferView":25,
			"componentType":5126,
			"count":4,
			"type":"VEC3"
		},
		{
			"bufferView":26,
			"componentType":5126,
			"count":4,
			"type":"VEC2"
		},
		{
			"bufferView":27,
			"componentType":5123,
			"count":6,
			"type":"SCALAR"
		}
	],
	"bufferViews":[
		{
			"buffer":0,
			"byteLength":1440,
			"byteOffset":0,
			"target":34962
		},
		{
			"buffer":0,
			"byteLength":1440,
			"byteOffset":1440,
			"target":34962
		},
		{
			"buffer":0,
			"byteLength":960,
			"byteOffset":2880,
			"target":34962
		},
		{
			"buffer":0,
			"byteLength":456,
			"byteOffset":3840,
			"target":34963
		},
		{
			"buffer":0,
			"byteLength":336,
			"byteOffset":4296,
			"target":34962
		},
		{
			"buffer":0,
			"byteLength":336,
			"byteOffset":4632,
			"target":34962
		},
		{
			"buffer":0,
			"byteLength":224,
			"byteOffset":4968,
			"target":34962
		},
		{
			"buffer":0,
			"byteLength":84,
			"byteOffset":5192,
			"target":34963
		},
		{
			"buffer":0,
			"byteLength":2928,
			"byteOffset":5276,
			"target":34962
		},
		{
			"buffer":0,
			"byteLength":2928,
			"byteOffset":8204,
			"target":34962
		},
		{
			"buffer":0,
			"byteLength":1952,
			"byteOffset":11132,
			"target":34962
		},
		{
			"buffer":0,
			"byteLength":864,
			"byteOffset":13084,
			"target":34963
		},
		{
			"buffer":0,
			"byteLength":1956,
			"byteOffset":13948,
			"target":34962
		},
		{
			"buffer":0,
			"byteLength":1956,
			"byteOffset":15904,
			"target":34962
		},
		{
			"buffer":0,
			"byteLength":1304,
			"byteOffset":17860,
			"target":34962
		},
		{
			"buffer":0,
			"byteLength":720,
			"byteOffset":19164,
			"target":34963
		},
		{
			"buffer":0,
			"byteLength":576,
			"byteOffset":19884,
			"target":34962
		},
		{
			"buffer":0,
			"byteLength":576,
			"byteOffset":20460,
			"target":34962
		},
		{
			"buffer":0,
			"byteLength":384,
			"byteOffset":21036,
			"target":34962
		},
		{
			"buffer":0,
			"byteLength":144,
			"byteOffset":21420,
			"target":34963
		},
		{
			"buffer":0,
			"byteLength":2208,
			"byteOffset":21564,
			"target":34962
		},
		{
			"buffer":0,
			"byteLength":2208,
			"byteOffset":23772,
			"target":34962
		},
		{
			"buffer":0,
			"byteLength":1472,
			"byteOffset":25980,
			"target":34962
		},
		{
			"buffer":0,
			"byteLength":576,
			"byteOffset":27452,
			"target":34963
		},
		{
			"buffer":0,
			"byteLength":48,
			"byteOffset":28028,
			"target":34962
		},
		{
			"buffer":0,
			"byteLength":48,
			"byteOffset":28076,
			"target":34962
		},
		{
			"buffer":0,
			"byteLength":32,
			"byteOffset":28124,
			"target":34962
		},
		{
			"buffer":0,
			"byteLength":12,
			"byteOffset":28156,
			"target":34963
		}
	],
	"buffers":[
		{
			"byteLength":28168,
			"uri":"tall_apartment-2760cf6d7b6fdc5dfd8d1c69f7362deb.bin"
		}
	]
}
