{
	"asset":{
		"generator":"Khronos glTF Blender I/O v4.0.44",
		"version":"2.0"
	},
	"scene":0,
	"scenes":[
		{
			"name":"Scene",
			"nodes":[
				0
			]
		}
	],
	"nodes":[
		{
			"mesh":0,
			"name":"Table-col",
			"scale":[
				0.3732941746711731,
				0.3732941746711731,
				0.3732941746711731
			],
			"translation":[
				0.005416490137577057,
				0,
				0
			]
		}
	],
	"materials":[
		{
			"doubleSided":true,
			"name":"Structure",
			"pbrMetallicRoughness":{
				"baseColorFactor":[
					0,
					0,
					0,
					1
				],
				"metallicFactor":0,
				"roughnessFactor":0.5
			}
		},
		{
			"doubleSided":true,
			"name":"Red Awning",
			"pbrMetallicRoughness":{
				"baseColorFactor":[
					0.8000000715255737,
					0.027550021186470985,
					0.0103983785957098,
					1
				],
				"metallicFactor":0,
				"roughnessFactor":0.5
			}
		},
		{
			"doubleSided":true,
			"name":"White Awning",
			"pbrMetallicRoughness":{
				"baseColorFactor":[
					0.800000011920929,
					0.800000011920929,
					0.800000011920929,
					1
				],
				"metallicFactor":0,
				"roughnessFactor":0.5
			}
		}
	],
	"meshes":[
		{
			"name":"Circle.003",
			"primitives":[
				{
					"attributes":{
						"POSITION":0,
						"NORMAL":1,
						"TEXCOORD_0":2
					},
					"indices":3,
					"material":0
				},
				{
					"attributes":{
						"POSITION":4,
						"NORMAL":5,
						"TEXCOORD_0":6
					},
					"indices":7,
					"material":1
				},
				{
					"attributes":{
						"POSITION":8,
						"NORMAL":9,
						"TEXCOORD_0":10
					},
					"indices":11,
					"material":2
				}
			]
		}
	],
	"accessors":[
		{
			"bufferView":0,
			"componentType":5126,
			"count":248,
			"max":[
				1.9461369514465332,
				5.976071357727051,
				1.946136474609375
			],
			"min":[
				-1.946136474609375,
				0,
				-1.9461369514465332
			],
			"type":"VEC3"
		},
		{
			"bufferView":1,
			"componentType":5126,
			"count":248,
			"type":"VEC3"
		},
		{
			"bufferView":2,
			"componentType":5126,
			"count":248,
			"type":"VEC2"
		},
		{
			"bufferView":3,
			"componentType":5123,
			"count":402,
			"type":"SCALAR"
		},
		{
			"bufferView":4,
			"componentType":5126,
			"count":64,
			"max":[
				4.0410284996032715,
				6.07111120223999,
				4.041035175323486
			],
			"min":[
				-4.041033744812012,
				5.264240741729736,
				-4.041037082672119
			],
			"type":"VEC3"
		},
		{
			"bufferView":5,
			"componentType":5126,
			"count":64,
			"type":"VEC3"
		},
		{
			"bufferView":6,
			"componentType":5126,
			"count":64,
			"type":"VEC2"
		},
		{
			"bufferView":7,
			"componentType":5123,
			"count":96,
			"type":"SCALAR"
		},
		{
			"bufferView":8,
			"componentType":5126,
			"count":64,
			"max":[
				4.0410284996032715,
				6.07111120223999,
				4.041035175323486
			],
			"min":[
				-4.041033744812012,
				5.264240741729736,
				-4.041037082672119
			],
			"type":"VEC3"
		},
		{
			"bufferView":9,
			"componentType":5126,
			"count":64,
			"type":"VEC3"
		},
		{
			"bufferView":10,
			"componentType":5126,
			"count":64,
			"type":"VEC2"
		},
		{
			"bufferView":11,
			"componentType":5123,
			"count":96,
			"type":"SCALAR"
		}
	],
	"bufferViews":[
		{
			"buffer":0,
			"byteLength":2976,
			"byteOffset":0,
			"target":34962
		},
		{
			"buffer":0,
			"byteLength":2976,
			"byteOffset":2976,
			"target":34962
		},
		{
			"buffer":0,
			"byteLength":1984,
			"byteOffset":5952,
			"target":34962
		},
		{
			"buffer":0,
			"byteLength":804,
			"byteOffset":7936,
			"target":34963
		},
		{
			"buffer":0,
			"byteLength":768,
			"byteOffset":8740,
			"target":34962
		},
		{
			"buffer":0,
			"byteLength":768,
			"byteOffset":9508,
			"target":34962
		},
		{
			"buffer":0,
			"byteLength":512,
			"byteOffset":10276,
			"target":34962
		},
		{
			"buffer":0,
			"byteLength":192,
			"byteOffset":10788,
			"target":34963
		},
		{
			"buffer":0,
			"byteLength":768,
			"byteOffset":10980,
			"target":34962
		},
		{
			"buffer":0,
			"byteLength":768,
			"byteOffset":11748,
			"target":34962
		},
		{
			"buffer":0,
			"byteLength":512,
			"byteOffset":12516,
			"target":34962
		},
		{
			"buffer":0,
			"byteLength":192,
			"byteOffset":13028,
			"target":34963
		}
	],
	"buffers":[
		{
			"byteLength":13220,
			"uri":"terrace_table-1ebc06b1433b106d3d118700101d5d65.bin"
		}
	]
}
